<svg width="32" height="32" viewBox="0 0 32 32" fill="none" xmlns="http://www.w3.org/2000/svg">
<g clip-path="url(#clip0_2582_922)">
<path d="M31.343 0.00401357C25.0964 -0.107986 17.9724 3.15735 13.463 8.22268C9.1537 8.30401 4.9577 10.0707 1.86837 13.16C1.68837 13.3373 1.62437 13.6027 1.70304 13.8427C1.78304 14.084 1.99104 14.2587 2.2417 14.2947L7.38037 15.0307L6.7457 15.7413C6.5097 16.0053 6.5217 16.4067 6.77237 16.6573L15.3417 25.2267C15.471 25.356 15.6417 25.4213 15.8137 25.4213C15.9724 25.4213 16.131 25.3653 16.2577 25.252L16.9684 24.6173L17.7044 29.756C17.7404 30.0067 17.9377 30.1907 18.1764 30.2707C18.2377 30.2907 18.3017 30.3 18.367 30.3C18.5564 30.3 18.7497 30.2173 18.883 30.0853C21.9297 27.0387 23.6964 22.8427 23.7777 18.5333C28.8484 14.0147 32.1404 6.89335 31.995 0.65468C31.9857 0.300014 31.699 0.0133469 31.343 0.00401357ZM25.199 11.5133C24.5497 12.1627 23.6964 12.488 22.8417 12.488C21.987 12.488 21.1337 12.1627 20.4844 11.5133C19.1857 10.2133 19.1857 8.09868 20.4844 6.79868C21.7844 5.49868 23.899 5.49868 25.199 6.79868C26.499 8.09868 26.499 10.2147 25.199 11.5133Z" fill="#0FA76F"/>
<path d="M3.63208 22.5404C2.20541 23.9671 0.246743 30.4124 0.0280765 31.1418C-0.0425901 31.3764 0.0227432 31.6311 0.194743 31.8044C0.322743 31.9324 0.492077 32.0004 0.666743 32.0004C0.730743 32.0004 0.794743 31.9911 0.858743 31.9724C1.58808 31.7538 8.03341 29.7951 9.46008 28.3684C11.0667 26.7618 11.0667 24.1471 9.46008 22.5404C7.85208 20.9338 5.23874 20.9351 3.63208 22.5404Z" fill="#0FA76F"/>
</g>
<defs>
<clipPath id="clip0_2582_922">
<rect width="32" height="32" fill="white"/>
</clipPath>
</defs>
</svg>
