<svg width="32" height="32" viewBox="0 0 32 32" fill="none" xmlns="http://www.w3.org/2000/svg">
<path d="M5.11336 21.121C5.9987 21.913 7.0027 22.541 8.0787 23.013L13.7374 19.4597C14.908 18.721 16.476 18.8957 17.456 19.881L19.3587 21.7837C22.2107 19.681 23.9987 16.317 23.9987 12.6663C23.9987 6.41701 18.9147 1.33301 12.6654 1.33301C6.41603 1.33301 1.33203 6.41701 1.33203 12.6663C1.33203 15.8917 2.70936 18.973 5.11336 21.121ZM13.172 13.6663H12.1587C10.6 13.6663 9.33203 12.3983 9.33203 10.8397C9.33203 9.43834 10.3427 8.28501 11.6654 8.05034V6.99967C11.6654 6.44767 12.1134 5.99967 12.6654 5.99967C13.2174 5.99967 13.6654 6.44767 13.6654 6.99967V7.99967H14.9987C15.5507 7.99967 15.9987 8.44767 15.9987 8.99967C15.9987 9.55167 15.5507 9.99967 14.9987 9.99967H12.1587C11.7027 9.99967 11.332 10.3703 11.332 10.8263C11.332 11.2957 11.7027 11.6663 12.1587 11.6663H13.172C14.7307 11.6663 15.9987 12.9343 15.9987 14.493C15.9987 15.8943 14.988 17.0477 13.6654 17.2823V18.3317C13.6654 18.8837 13.2174 19.3317 12.6654 19.3317C12.1134 19.3317 11.6654 18.8837 11.6654 18.3317V17.333H10.332C9.78003 17.333 9.33203 16.885 9.33203 16.333C9.33203 15.781 9.78003 15.333 10.332 15.333H13.172C13.628 15.333 13.9987 14.9623 13.9987 14.5063C13.9987 14.037 13.628 13.6663 13.172 13.6663Z" fill="#0FA76F"/>
<path d="M30.6662 16H25.3328C24.7942 16 24.3062 16.3253 24.1008 16.8227C23.8942 17.3213 24.0088 17.8947 24.3902 18.276L26.1142 20L20.6662 25.448L16.2755 21.0573C15.8395 20.6187 15.1542 20.5427 14.6315 20.8667L0.631515 29.5333C0.00484816 29.9213 -0.187152 30.7427 0.199515 31.368C0.451515 31.776 0.887515 32 1.33418 32C1.57418 32 1.81551 31.936 2.03418 31.8L15.1355 23.6893L19.7222 28.276C20.2435 28.7973 21.0862 28.7973 21.6075 28.276L27.9995 21.8853L29.7235 23.6093C29.9782 23.864 30.3195 24 30.6662 24C30.8382 24 31.0115 23.9667 31.1768 23.8987C31.6755 23.692 31.9995 23.2053 31.9995 22.6667V17.3333C31.9995 16.5973 31.4035 16 30.6662 16Z" fill="#0FA76F"/>
</svg>
