<svg width="70" height="90" viewBox="0 0 70 90" fill="none" xmlns="http://www.w3.org/2000/svg">
<path d="M69.8132 35.368H63.8825C63.7002 27.7504 60.591 20.5071 55.2186 15.1849C49.8463 9.86263 42.6368 6.88338 35.1298 6.88338C27.6227 6.88338 20.4132 9.86263 15.0409 15.1849C9.66855 20.5071 6.55926 27.7504 6.37703 35.368H0.494141C0.676214 26.1595 4.40804 17.3905 10.8884 10.9434C17.3688 4.49638 26.0811 0.885254 35.1552 0.885254C44.2292 0.885254 52.9416 4.49638 59.422 10.9434C65.9023 17.3905 69.6342 26.1595 69.8162 35.368H69.8132Z" fill="#D6D6D6"/>
<path d="M32.7218 64.9921V71.1657C24.1455 70.5536 16.0996 66.7271 10.1476 60.4298C4.19561 54.1326 0.762625 45.8142 0.515625 37.0912H6.47124C6.64592 41.8527 7.96344 46.499 10.3093 50.6262C12.6552 54.7534 15.9584 58.2368 19.932 60.7737C19.4222 59.24 19.1498 57.6354 19.1244 56.017V16.5835L19.2071 16.627L19.2859 16.6736H25.0691V41.1192H31.0188V47.1613H25.0691V56.02C25.0989 57.7984 25.6232 59.532 26.5814 61.021C27.5397 62.5101 28.8929 63.6941 30.4853 64.4364C31.189 64.765 31.9482 64.9536 32.7218 64.9921Z" fill="#D6D6D6"/>
<path d="M69.8321 36.8057C69.7082 43.0777 67.9363 49.2022 64.6997 54.5463C61.4631 59.8905 56.8792 64.2604 51.4217 67.2044V57.2274C51.4217 56.94 51.4018 56.687 51.4018 56.4016C51.3836 53.936 50.4027 51.5783 48.6742 49.8459C46.9457 48.1134 44.6108 47.1476 42.1817 47.1603H32.7202V41.1202H40.5295C41.7469 41.1632 42.9603 40.9569 44.0974 40.5137C45.2346 40.0705 46.2722 39.3994 47.1484 38.5405C48.0246 37.6816 48.7214 36.6523 49.1973 35.5142C49.6732 34.376 49.9185 33.1523 49.9185 31.9159C49.9185 30.6795 49.6732 29.4557 49.1973 28.3176C48.7214 27.1795 48.0246 26.1502 47.1484 25.2913C46.2722 24.4324 45.2346 23.7613 44.0974 23.3181C42.9603 22.8749 41.7469 22.6686 40.5295 22.7116H26.7695V16.6725H40.5245C43.6125 16.6495 46.6325 17.5931 49.1732 19.3748C51.7139 21.1565 53.6519 23.6897 54.7232 26.6295C55.7945 29.5693 55.9472 32.7729 55.1603 35.8039C54.3735 38.835 52.6854 41.5462 50.3259 43.5684C53.8317 45.8406 56.5229 48.8869 56.807 55.2134C61.1858 50.0887 63.6866 43.5863 63.8864 36.8057H69.8321Z" fill="#D6D6D6"/>
<path d="M4.01691 79.1535H1.60791C1.56964 79.1535 1.53241 79.1409 1.50184 79.1175C1.47126 79.0941 1.44896 79.0613 1.43836 79.024L0.672647 76.3004C0.665262 76.2738 0.664015 76.2459 0.669057 76.2187C0.674098 76.1916 0.685261 76.166 0.701676 76.1439C0.718092 76.1219 0.739325 76.1039 0.763691 76.0916C0.788056 76.0793 0.814905 76.0728 0.842136 76.0728H10.0443C10.083 76.0727 10.1207 76.0855 10.1515 76.1093C10.1823 76.133 10.2045 76.1665 10.2148 76.2043L10.9537 78.9278C10.9609 78.9543 10.962 78.9822 10.9568 79.0093C10.9517 79.0363 10.9405 79.0617 10.9241 79.0837C10.9077 79.1056 10.8865 79.1234 10.8623 79.1357C10.838 79.148 10.8113 79.1544 10.7842 79.1545H7.83574C7.78893 79.1545 7.74408 79.1734 7.71098 79.207C7.67788 79.2406 7.65925 79.2861 7.65925 79.3336V89.4322C7.65925 89.4557 7.65473 89.479 7.64586 89.5007C7.63699 89.5225 7.62397 89.5422 7.60758 89.5588C7.59119 89.5754 7.57173 89.5886 7.55032 89.5976C7.5289 89.6066 7.50594 89.6113 7.48276 89.6113H4.37086C4.32405 89.6113 4.27914 89.5924 4.24604 89.5588C4.21294 89.5252 4.19437 89.4797 4.19437 89.4322V79.3336C4.1945 79.3099 4.18998 79.2865 4.1811 79.2646C4.17223 79.2427 4.15921 79.2227 4.1427 79.206C4.12619 79.1892 4.10654 79.1759 4.08495 79.1669C4.06335 79.1579 4.04025 79.1534 4.01691 79.1535Z" fill="#D6D6D6"/>
<path d="M18.4797 87.2063H13.0365C13.0056 87.2062 12.9753 87.2144 12.9485 87.2301C12.9217 87.2457 12.8994 87.2682 12.884 87.2954L11.6017 89.522C11.5862 89.5491 11.5639 89.5716 11.5371 89.5872C11.5104 89.6028 11.48 89.6111 11.4491 89.6111H8.28135C8.25047 89.611 8.22019 89.6026 8.19347 89.5869C8.16675 89.5712 8.14452 89.5486 8.12908 89.5215C8.11364 89.4943 8.10552 89.4636 8.10547 89.4322C8.10542 89.4009 8.11348 89.37 8.12884 89.3428L15.6071 76.1515C15.6225 76.1241 15.6448 76.1014 15.6717 76.0856C15.6986 76.0698 15.7291 76.0615 15.7601 76.0615C15.7912 76.0615 15.8217 76.0698 15.8485 76.0856C15.8754 76.1014 15.8977 76.1241 15.9132 76.1515L23.3854 89.3428C23.4008 89.3701 23.4088 89.401 23.4087 89.4325C23.4086 89.4639 23.4004 89.4948 23.3848 89.5219C23.3693 89.5491 23.3469 89.5716 23.3201 89.5873C23.2932 89.6029 23.2628 89.6111 23.2318 89.6111H20.064C20.0332 89.6111 20.0028 89.6028 19.976 89.5872C19.9493 89.5716 19.927 89.5491 19.9115 89.522L18.6293 87.2954C18.6141 87.2687 18.5922 87.2465 18.566 87.2309C18.5398 87.2152 18.5101 87.2068 18.4797 87.2063ZM16.992 84.4373L15.9141 82.566C15.8983 82.5403 15.8762 82.5191 15.8501 82.5044C15.8239 82.4897 15.7945 82.4819 15.7646 82.4819C15.7347 82.4819 15.7053 82.4897 15.6791 82.5044C15.6529 82.5191 15.6309 82.5403 15.615 82.566L14.5302 84.4373C14.5144 84.4645 14.5059 84.4954 14.5056 84.527C14.5054 84.5585 14.5134 84.5896 14.5288 84.617C14.5442 84.6445 14.5664 84.6673 14.5933 84.6832C14.6201 84.6991 14.6506 84.7075 14.6817 84.7075H16.8444C16.8754 84.7074 16.9057 84.699 16.9324 84.6831C16.9591 84.6673 16.9813 84.6445 16.9967 84.6173C17.012 84.59 17.02 84.5591 17.0199 84.5277C17.0198 84.4963 17.0116 84.4655 16.996 84.4383L16.992 84.4373Z" fill="#D6D6D6"/>
<path d="M32.0162 89.6097H24.198C24.1512 89.6097 24.1063 89.5908 24.0732 89.5573C24.0401 89.5237 24.0215 89.4781 24.0215 89.4306V76.2554C24.0215 76.2081 24.04 76.1627 24.0728 76.1291C24.1057 76.0955 24.1504 76.0765 24.197 76.0763L27.3099 76.0671C27.3567 76.0671 27.4016 76.0861 27.4347 76.1196C27.4678 76.1532 27.4864 76.1988 27.4864 76.2463V86.3357C27.4864 86.3832 27.505 86.4288 27.5381 86.4623C27.5712 86.4959 27.6161 86.5148 27.6629 86.5148H32.8348C32.8623 86.5149 32.8894 86.5215 32.9139 86.5341C32.9384 86.5466 32.9597 86.5648 32.9761 86.5872C32.9925 86.6097 33.0035 86.6357 33.0082 86.6632C33.0129 86.6906 33.0112 86.7189 33.0033 86.7456L32.1837 89.4782C32.1736 89.5156 32.1518 89.5485 32.1215 89.5723C32.0913 89.596 32.0544 89.6091 32.0162 89.6097Z" fill="#D6D6D6"/>
<path d="M33.9844 89.4019V76.2449C33.9844 76.2214 33.989 76.1981 33.9978 76.1763C34.0067 76.1546 34.0197 76.1348 34.0361 76.1182C34.0525 76.1016 34.0719 76.0883 34.0933 76.0793C34.1147 76.0703 34.1377 76.0658 34.1609 76.0658H37.9179C38.9192 76.0492 39.917 76.1909 40.8753 76.4857C41.6565 76.7168 42.3485 77.1864 42.8575 77.8308C43.3028 78.4892 43.5486 79.2655 43.5645 80.064C43.5804 80.8624 43.3659 81.6482 42.9473 82.3244C42.6077 82.8936 42.1011 83.3406 41.4985 83.6026C41.4749 83.6123 41.4536 83.6271 41.4361 83.6459C41.4185 83.6647 41.4052 83.6871 41.3969 83.7115C41.3887 83.736 41.3858 83.762 41.3883 83.7878C41.3909 83.8135 41.3989 83.8384 41.4118 83.8607L44.6494 89.326C44.6654 89.3531 44.674 89.384 44.6744 89.4156C44.6748 89.4473 44.667 89.4784 44.6517 89.506C44.6364 89.5335 44.6142 89.5565 44.5873 89.5725C44.5605 89.5885 44.5299 89.5971 44.4988 89.5972H40.8564C40.8248 89.5972 40.7937 89.5884 40.7666 89.5721C40.7394 89.5557 40.717 89.5322 40.7018 89.504L37.4862 83.5328H37.4463V89.4029C37.4463 89.4504 37.4277 89.496 37.3946 89.5296C37.3615 89.5632 37.3167 89.582 37.2699 89.582H34.1579C34.1114 89.5812 34.0671 89.5618 34.0346 89.5281C34.0022 89.4943 33.9841 89.449 33.9844 89.4019ZM37.4493 82.5481C37.4494 82.572 37.4542 82.5957 37.4634 82.6178C37.4727 82.6399 37.4861 82.6599 37.503 82.6766C37.5199 82.6934 37.5399 82.7065 37.5618 82.7154C37.5837 82.7243 37.6072 82.7286 37.6308 82.7282C38.0625 82.7259 38.4914 82.6577 38.9031 82.5258C39.2592 82.4161 39.5704 82.1916 39.7895 81.8862C40.0076 81.5501 40.1157 81.1527 40.0986 80.7506C40.1304 80.4737 40.0858 80.1933 39.9697 79.9406C39.8537 79.6879 39.6709 79.4729 39.4415 79.3195C38.8762 79.0488 38.2555 78.9187 37.6308 78.94C37.6072 78.9396 37.5837 78.944 37.5618 78.9529C37.5399 78.9617 37.5199 78.9749 37.503 78.9917C37.4861 79.0084 37.4727 79.0284 37.4634 79.0505C37.4542 79.0725 37.4494 79.0962 37.4493 79.1201V82.5481Z" fill="#D6D6D6"/>
<path d="M54.9643 77.0192C55.9716 77.6041 56.8096 78.4477 57.3942 79.4654C57.9896 80.4921 58.2997 81.6634 58.2915 82.8548C58.302 84.0433 57.9917 85.212 57.3942 86.2341C56.8012 87.2525 55.9569 88.0965 54.9446 88.6828C53.9323 89.269 52.7869 89.5774 51.6215 89.5774C50.456 89.5774 49.3106 89.269 48.2983 88.6828C47.286 88.0965 46.4418 87.2525 45.8488 86.2341C45.2512 85.212 44.9409 84.0433 44.9514 82.8548C44.9431 81.6634 45.2532 80.492 45.8488 79.4654C46.7453 77.9221 48.2051 76.7998 49.9115 76.3418C51.618 75.8839 53.4334 76.1273 54.9643 77.0192ZM49.8372 79.5929C49.2953 79.9427 48.848 80.4242 48.5357 80.9938C48.2233 81.5633 48.0558 82.203 48.0484 82.8548C48.0489 83.5037 48.2178 84.1411 48.538 84.7028C48.8448 85.2806 49.2907 85.7701 49.8342 86.1258C50.3661 86.4744 50.9858 86.6598 51.619 86.6598C52.2521 86.6598 52.8719 86.4744 53.4038 86.1258C53.9494 85.769 54.399 85.28 54.712 84.7028C55.0272 84.1393 55.1928 83.5023 55.1928 82.8543C55.1928 82.2063 55.0272 81.5693 54.712 81.0057C54.4038 80.4306 53.958 79.9434 53.4157 79.5888C52.8824 79.2399 52.2614 79.0544 51.6269 79.0544C50.991 79.0515 50.3683 79.2384 49.8362 79.5919L49.8372 79.5929Z" fill="#D6D6D6"/>
<path d="M59.6816 89.4307V76.2504C59.6816 76.2029 59.7003 76.1573 59.7334 76.1237C59.7665 76.0901 59.8113 76.0712 59.8581 76.0712H63.9034C64.7116 76.0587 65.519 76.1289 66.3133 76.2808C66.9372 76.3997 67.5326 76.6402 68.0663 76.9892C68.5596 77.3226 68.9522 77.7882 69.2009 78.3343C69.4839 78.9858 69.6202 79.6932 69.5998 80.4049C69.6099 81.0265 69.4731 81.6415 69.2009 82.1984C68.9349 82.727 68.5573 83.1897 68.0951 83.5535C67.5933 83.9479 67.0226 84.2425 66.413 84.4219C65.7513 84.6254 65.0634 84.7278 64.372 84.7255H63.333C63.2862 84.7255 63.2413 84.7444 63.2082 84.778C63.1751 84.8116 63.1565 84.8572 63.1565 84.9047V89.4316C63.1565 89.4791 63.138 89.5247 63.1049 89.5583C63.0718 89.5919 63.0268 89.6108 62.98 89.6108H59.8581C59.8349 89.6108 59.8118 89.6061 59.7903 89.5971C59.7689 89.588 59.7494 89.5747 59.733 89.558C59.7166 89.5412 59.7036 89.5214 59.6948 89.4995C59.686 89.4777 59.6815 89.4543 59.6816 89.4307ZM63.1565 79.1216V81.6731C63.1565 81.7206 63.1751 81.7662 63.2082 81.7998C63.2413 81.8333 63.2862 81.8523 63.333 81.8523H64.1526C64.6711 81.885 65.1867 81.7515 65.6264 81.4707C65.7938 81.3469 65.9279 81.1824 66.0166 80.9923C66.1052 80.8023 66.1457 80.5927 66.1339 80.3827C66.1443 80.1757 66.1032 79.9693 66.0145 79.7826C65.9258 79.5958 65.7924 79.4347 65.6264 79.3139C65.1844 79.0393 64.6699 78.9093 64.1526 78.9415H63.333C63.2862 78.9415 63.2413 78.9604 63.2082 78.994C63.1751 79.0276 63.1565 79.0731 63.1565 79.1206V79.1216Z" fill="#D6D6D6"/>
</svg>
